<svg width="113" height="42" viewBox="0 0 113 42" fill="none" xmlns="http://www.w3.org/2000/svg">
<path d="M49.2858 18L52.8304 7.70947H54.2239L57.7684 18H56.675L53.3092 8.29546H53.7236L50.3792 18H49.2858ZM50.8652 15.506V14.5198H56.1819V15.506H50.8652ZM62.1246 21.6446C61.7291 21.6446 61.3385 21.585 60.9526 21.4659C60.5714 21.3516 60.2189 21.1681 59.8949 20.9156C59.571 20.6679 59.2994 20.344 59.0803 19.9438L60.0307 19.4149C60.2451 19.8437 60.5452 20.151 60.9311 20.3368C61.3218 20.5274 61.7196 20.6227 62.1246 20.6227C62.682 20.6227 63.1322 20.5178 63.4752 20.3082C63.823 20.1034 64.0755 19.7985 64.2327 19.3935C64.3899 18.9886 64.4661 18.4836 64.4614 17.8785V15.8204H64.5828V10.2821H65.519V17.8928C65.519 18.112 65.5119 18.3216 65.4976 18.5217C65.488 18.7265 65.4666 18.9266 65.4332 19.122C65.3427 19.6984 65.1545 20.1724 64.8687 20.544C64.5876 20.9156 64.216 21.192 63.7539 21.373C63.2965 21.554 62.7534 21.6446 62.1246 21.6446ZM62.0531 18.2144C61.3337 18.2144 60.7191 18.0357 60.2094 17.6784C59.6996 17.3163 59.309 16.828 59.0374 16.2135C58.7658 15.5989 58.6301 14.9057 58.6301 14.1339C58.6301 13.3669 58.7635 12.6761 59.0302 12.0615C59.3018 11.4469 59.6901 10.961 60.1951 10.6037C60.7001 10.2464 61.3051 10.0677 62.0102 10.0677C62.7344 10.0677 63.3442 10.244 63.8396 10.5965C64.3351 10.9491 64.7091 11.4326 64.9616 12.0472C65.2189 12.657 65.3475 13.3526 65.3475 14.1339C65.3475 14.9009 65.2212 15.5941 64.9687 16.2135C64.7162 16.828 64.3446 17.3163 63.8539 17.6784C63.3632 18.0357 62.7629 18.2144 62.0531 18.2144ZM62.1603 17.2354C62.7082 17.2354 63.1608 17.102 63.5181 16.8352C63.8754 16.5684 64.1422 16.2015 64.3184 15.7347C64.4947 15.263 64.5828 14.7294 64.5828 14.1339C64.5828 13.5289 64.4947 12.9953 64.3184 12.5332C64.1422 12.0663 63.8754 11.7018 63.5181 11.4398C63.1655 11.1778 62.7201 11.0467 62.1817 11.0467C61.6291 11.0467 61.1717 11.1825 60.8097 11.4541C60.4476 11.7256 60.1784 12.0949 60.0021 12.5617C59.8306 13.0286 59.7449 13.5527 59.7449 14.1339C59.7449 14.7199 59.833 15.2487 60.0093 15.7204C60.1903 16.1872 60.4595 16.5565 60.8168 16.828C61.1741 17.0996 61.6219 17.2354 62.1603 17.2354ZM70.74 18.2144C69.9729 18.2144 69.3179 18.0405 68.7748 17.6927C68.2317 17.3449 67.8148 16.8638 67.5242 16.2492C67.2336 15.6346 67.0883 14.9295 67.0883 14.1339C67.0883 13.324 67.2359 12.6141 67.5313 12.0043C67.8267 11.3945 68.2459 10.9205 68.7891 10.5822C69.3369 10.2392 69.9872 10.0677 70.74 10.0677C71.5118 10.0677 72.1692 10.2416 72.7123 10.5894C73.2602 10.9324 73.6771 11.4112 73.9629 12.0258C74.2535 12.6356 74.3988 13.3383 74.3988 14.1339C74.3988 14.9438 74.2535 15.656 73.9629 16.2706C73.6723 16.8804 73.253 17.3568 72.7052 17.6999C72.1573 18.0429 71.5022 18.2144 70.74 18.2144ZM70.74 17.2068C71.5975 17.2068 72.2359 16.9233 72.6551 16.3564C73.0744 15.7847 73.284 15.0439 73.284 14.1339C73.284 13.2001 73.072 12.4569 72.648 11.9043C72.2288 11.3517 71.5927 11.0753 70.74 11.0753C70.1635 11.0753 69.6871 11.2063 69.3107 11.4684C68.9391 11.7256 68.6604 12.0853 68.4746 12.5474C68.2936 13.0048 68.2031 13.5336 68.2031 14.1339C68.2031 15.0629 68.4175 15.8085 68.8462 16.3707C69.275 16.9281 69.9062 17.2068 70.74 17.2068ZM75.9752 18V10.2821H76.9185V12.1401L76.7327 11.8971C76.8185 11.6685 76.9304 11.4588 77.0686 11.2683C77.2068 11.073 77.3568 10.9134 77.5188 10.7895C77.7189 10.6132 77.9523 10.4798 78.2191 10.3893C78.4859 10.294 78.7551 10.2392 79.0267 10.2249C79.2982 10.2059 79.5459 10.2249 79.7699 10.2821V11.2683C79.4888 11.1968 79.1815 11.1801 78.848 11.2183C78.5145 11.2564 78.2072 11.3898 77.9261 11.6184C77.6689 11.8185 77.4759 12.0591 77.3473 12.3402C77.2187 12.6165 77.1329 12.9119 77.09 13.2263C77.0472 13.536 77.0257 13.8433 77.0257 14.1482V18H75.9752ZM83.0406 18.2144C82.4594 18.2144 81.971 18.1096 81.5756 17.9C81.185 17.6903 80.892 17.4116 80.6966 17.0638C80.5013 16.7161 80.4036 16.3373 80.4036 15.9276C80.4036 15.5084 80.487 15.151 80.6538 14.8557C80.8253 14.5555 81.0563 14.3102 81.3469 14.1196C81.6423 13.929 81.9829 13.7837 82.3688 13.6837C82.7595 13.5884 83.1907 13.505 83.6623 13.4336C84.1387 13.3574 84.6032 13.293 85.0558 13.2406C85.5132 13.1835 85.9134 13.1287 86.2564 13.0763L85.8848 13.3049C85.8991 12.5427 85.7514 11.9781 85.4417 11.6113C85.132 11.2445 84.5937 11.061 83.8267 11.061C83.2978 11.061 82.85 11.1801 82.4832 11.4184C82.1211 11.6566 81.8662 12.0329 81.7185 12.5474L80.6966 12.2473C80.8729 11.5565 81.2278 11.0205 81.7614 10.6394C82.295 10.2583 82.9882 10.0677 83.841 10.0677C84.5461 10.0677 85.144 10.2011 85.6347 10.4679C86.1301 10.7299 86.4803 11.1111 86.6851 11.6113C86.7804 11.8352 86.8424 12.0853 86.8709 12.3616C86.8995 12.638 86.9138 12.9191 86.9138 13.2049V18H85.9777V16.0634L86.2492 16.1777C85.9872 16.8399 85.5799 17.3449 85.0272 17.6927C84.4746 18.0405 83.8124 18.2144 83.0406 18.2144ZM83.1621 17.3068C83.6528 17.3068 84.0815 17.2187 84.4484 17.0424C84.8152 16.8661 85.1106 16.6255 85.3345 16.3206C85.5584 16.011 85.7037 15.6632 85.7704 15.2773C85.8276 15.0296 85.8586 14.758 85.8633 14.4626C85.8681 14.1625 85.8705 13.9386 85.8705 13.7909L86.2707 13.9981C85.9134 14.0458 85.5251 14.0934 85.1058 14.1411C84.6914 14.1887 84.2816 14.2435 83.8767 14.3054C83.4765 14.3673 83.1144 14.4412 82.7905 14.5269C82.5713 14.5889 82.3593 14.677 82.1545 14.7914C81.9496 14.9009 81.7805 15.0486 81.6471 15.2344C81.5184 15.4202 81.4541 15.6513 81.4541 15.9276C81.4541 16.1515 81.5089 16.3683 81.6185 16.5779C81.7328 16.7875 81.9139 16.9614 82.1616 17.0996C82.4141 17.2377 82.7476 17.3068 83.1621 17.3068ZM50.0005 34V23.7095H51.5512L55.11 30.9986L58.6688 23.7095H60.2195V34H58.6116V27.4041L55.453 34H54.767L51.6155 27.4041V34H50.0005ZM62.2272 34V23.7095H68.8731V25.3245H63.9494V27.8614H68.0156V29.4765H63.9494V32.385H68.8731V34H62.2272ZM73.0602 34V25.3245H69.7301V23.7095H78.1126V25.3245H74.7825V34H73.0602ZM79.2552 34V23.7095H83.5072C83.6073 23.7095 83.7359 23.7142 83.8931 23.7238C84.0503 23.7285 84.1956 23.7428 84.329 23.7666C84.9245 23.8572 85.4152 24.0549 85.8011 24.3598C86.1918 24.6647 86.48 25.0506 86.6658 25.5175C86.8564 25.9796 86.9517 26.4941 86.9517 27.061C86.9517 27.8995 86.7397 28.6213 86.3157 29.2263C85.8917 29.8266 85.2414 30.1982 84.3648 30.3411L83.6287 30.4055H80.9775V34H79.2552ZM85.1651 34L83.1356 29.8123L84.8864 29.4264L87.116 34H85.1651ZM80.9775 28.7976H83.4357C83.531 28.7976 83.6382 28.7928 83.7573 28.7833C83.8764 28.7737 83.986 28.7547 84.0861 28.7261C84.3719 28.6546 84.5958 28.5284 84.7578 28.3474C84.9245 28.1663 85.0413 27.9615 85.108 27.7328C85.1794 27.5041 85.2152 27.2802 85.2152 27.061C85.2152 26.8419 85.1794 26.618 85.108 26.3893C85.0413 26.1559 84.9245 25.9486 84.7578 25.7676C84.5958 25.5865 84.3719 25.4603 84.0861 25.3888C83.986 25.3602 83.8764 25.3436 83.7573 25.3388C83.6382 25.3293 83.531 25.3245 83.4357 25.3245H80.9775V28.7976ZM88.8334 34V23.7095H90.5556V34H88.8334ZM97.0483 34.2144C96.0192 34.2144 95.1378 33.9905 94.4042 33.5426C93.6705 33.0901 93.1059 32.4612 92.7105 31.656C92.3198 30.8509 92.1245 29.9171 92.1245 28.8547C92.1245 27.7923 92.3198 26.8586 92.7105 26.0534C93.1059 25.2483 93.6705 24.6218 94.4042 24.174C95.1378 23.7214 96.0192 23.4951 97.0483 23.4951C98.2345 23.4951 99.2231 23.7928 100.014 24.3884C100.805 24.9791 101.36 25.7771 101.679 26.7823L99.9425 27.2611C99.7424 26.5894 99.4017 26.0653 98.9206 25.689C98.4394 25.3078 97.8153 25.1173 97.0483 25.1173C96.3575 25.1173 95.781 25.2721 95.3189 25.5818C94.8615 25.8914 94.5161 26.3274 94.2827 26.8895C94.054 27.4469 93.9373 28.102 93.9325 28.8547C93.9325 29.6075 94.0468 30.2649 94.2755 30.8271C94.509 31.3845 94.8567 31.818 95.3189 32.1277C95.781 32.4374 96.3575 32.5922 97.0483 32.5922C97.8153 32.5922 98.4394 32.4016 98.9206 32.0205C99.4017 31.6394 99.7424 31.1153 99.9425 30.4483L101.679 30.9271C101.36 31.9324 100.805 32.7327 100.014 33.3283C99.2231 33.919 98.2345 34.2144 97.0483 34.2144ZM107.49 34.2144C106.737 34.2144 106.058 34.0834 105.453 33.8213C104.853 33.5593 104.357 33.1853 103.967 32.6994C103.581 32.2087 103.335 31.6275 103.23 30.9557L105.017 30.6842C105.169 31.294 105.482 31.7656 105.953 32.0991C106.43 32.4326 106.977 32.5993 107.597 32.5993C107.964 32.5993 108.309 32.5422 108.633 32.4278C108.957 32.3135 109.219 32.1468 109.419 31.9276C109.624 31.7085 109.726 31.4393 109.726 31.1201C109.726 30.9772 109.703 30.8461 109.655 30.727C109.607 30.6032 109.536 30.4936 109.441 30.3983C109.35 30.303 109.231 30.2173 109.083 30.1411C108.94 30.0601 108.774 29.991 108.583 29.9338L105.925 29.1477C105.696 29.081 105.448 28.9929 105.181 28.8833C104.919 28.769 104.669 28.6141 104.431 28.4188C104.198 28.2187 104.005 27.9662 103.852 27.6613C103.705 27.3517 103.631 26.9705 103.631 26.5179C103.631 25.8557 103.797 25.3007 104.131 24.8529C104.469 24.4003 104.922 24.062 105.489 23.8381C106.06 23.6142 106.694 23.5046 107.39 23.5094C108.095 23.5141 108.724 23.6356 109.276 23.8738C109.829 24.1073 110.291 24.4479 110.663 24.8957C111.034 25.3436 111.296 25.8843 111.449 26.5179L109.598 26.8395C109.522 26.4774 109.374 26.1701 109.155 25.9176C108.94 25.6604 108.676 25.4651 108.361 25.3317C108.052 25.1983 107.721 25.1268 107.368 25.1173C107.025 25.1125 106.706 25.1649 106.411 25.2745C106.12 25.3793 105.884 25.5318 105.703 25.7318C105.527 25.9319 105.439 26.1654 105.439 26.4322C105.439 26.6847 105.515 26.8919 105.667 27.0539C105.82 27.2111 106.008 27.3374 106.232 27.4326C106.461 27.5232 106.692 27.5994 106.925 27.6613L108.769 28.1758C109.021 28.2425 109.305 28.3331 109.619 28.4474C109.934 28.5617 110.236 28.7213 110.527 28.9262C110.817 29.1311 111.056 29.4002 111.241 29.7337C111.432 30.0672 111.527 30.4912 111.527 31.0057C111.527 31.5393 111.415 32.0086 111.191 32.4135C110.972 32.8137 110.674 33.1472 110.298 33.414C109.922 33.6808 109.491 33.8809 109.005 34.0143C108.523 34.1477 108.018 34.2144 107.49 34.2144Z" fill="white"/>
<path d="M32.9809 22H22.8134C22.3642 22 22 22.3801 22 22.8491V33.5472C22 37.111 24.7677 40 28.1818 40H38.0239C38.563 40 39 39.5438 39 38.9811V28.283C39 24.813 36.3051 22 32.9809 22Z" fill="white"/>
<path d="M8.3732 20L19.1388 20C19.6144 20 20 19.6199 20 19.1509L20 8.45283C20 4.88903 17.0695 2 13.4545 2L3.03349 2C2.46271 2 2 2.45616 2 3.01887L2 13.717C2 17.187 4.85338 20 8.3732 20Z" fill="white"/>
<path d="M22 6.16667L22 19.1667C22 19.6269 22.367 20 22.8197 20L35.7705 20C39.211 20 42 17.1645 42 13.6667L42 0.999999C42 0.447715 41.5596 -8.54978e-07 41.0164 -8.31233e-07L28.0656 -2.65135e-07C24.7156 -1.18705e-07 22 2.76091 22 6.16667Z" fill="white"/>
<path d="M-6.04674e-07 28.1667L-3.64262e-08 41.1667C-1.63085e-08 41.6269 0.36698 42 0.819672 42L13.7705 42C17.211 42 20 39.1645 20 35.6667L20 23C20 22.4477 19.5596 22 19.0164 22L6.06557 22C2.71565 22 -7.53545e-07 24.7609 -6.04674e-07 28.1667Z" fill="white"/>
</svg>
